<svg width="199" height="24" viewBox="0 0 199 24" fill="none" xmlns="http://www.w3.org/2000/svg">
<path d="M11.6834 0.618164C13.0681 0.618164 14.1944 0.824831 15.0624 1.23817C15.9304 1.63083 16.7261 2.09583 17.4494 2.63317C17.6974 2.83983 17.9041 2.94317 18.0694 2.94317C18.4621 2.94317 18.7204 2.31283 18.8444 1.05217H19.5574C19.5161 1.8375 19.4851 2.7985 19.4644 3.93517C19.4438 5.07183 19.4334 6.57017 19.4334 8.43017H18.7204C18.5758 7.31417 18.3691 6.31183 18.1004 5.42316C17.8318 4.5345 17.3461 3.78017 16.6434 3.16016C16.1061 2.5815 15.4241 2.13716 14.5974 1.82717C13.7914 1.4965 12.9751 1.33116 12.1484 1.33116C11.0531 1.33116 10.0921 1.6205 9.26542 2.19917C8.45942 2.75716 7.77742 3.53216 7.21942 4.52417C6.68208 5.4955 6.27908 6.63216 6.01042 7.93417C5.74175 9.2155 5.60742 10.5898 5.60742 12.0572C5.60742 15.7772 6.14475 18.5052 7.21942 20.2412C8.31475 21.9565 9.91642 22.8142 12.0244 22.8142C12.6031 22.8142 13.0991 22.7418 13.5124 22.5972C13.9464 22.4318 14.2978 22.2665 14.5664 22.1012C14.8971 21.8738 15.1141 21.6362 15.2174 21.3882C15.3208 21.1402 15.3724 20.8302 15.3724 20.4582V17.4202C15.3724 16.5108 15.2898 15.8392 15.1244 15.4052C14.9591 14.9505 14.6491 14.6405 14.1944 14.4752C13.7604 14.3098 13.1094 14.2168 12.2414 14.1962V13.5762C12.6548 13.5968 13.1404 13.6175 13.6984 13.6382C14.2771 13.6382 14.8764 13.6485 15.4964 13.6692C16.1371 13.6692 16.7157 13.6692 17.2324 13.6692C18.0384 13.6692 18.7721 13.6588 19.4334 13.6382C20.0948 13.6175 20.6424 13.5968 21.0764 13.5762V14.1962C20.4564 14.2375 20.0534 14.4028 19.8674 14.6922C19.7021 14.9815 19.6194 15.7048 19.6194 16.8622V23.0002H18.9994C18.9788 22.6488 18.8961 22.2665 18.7514 21.8532C18.6068 21.4398 18.3898 21.2332 18.1004 21.2332C17.9558 21.2332 17.7904 21.2745 17.6044 21.3572C17.4184 21.4192 17.0981 21.5742 16.6434 21.8222C15.9201 22.2975 15.1451 22.6902 14.3184 23.0002C13.5124 23.2895 12.6238 23.4342 11.6524 23.4342C8.18042 23.4342 5.51442 22.4525 3.65442 20.4892C1.81508 18.5258 0.895416 15.8082 0.895416 12.3362C0.895416 9.9595 1.36042 7.89283 2.29042 6.13617C3.22042 4.3795 4.49142 3.02583 6.10342 2.07517C7.73608 1.10383 9.59608 0.618164 11.6834 0.618164Z" fill="#D7D1C5"/>
<path d="M27.327 1.05217C27.8437 1.07283 28.505 1.0935 29.311 1.11417C30.117 1.13483 30.923 1.14516 31.729 1.14516C32.7417 1.14516 33.7027 1.13483 34.612 1.11417C35.5214 1.0935 36.162 1.08317 36.534 1.08317C39.3034 1.08317 41.3597 1.56883 42.703 2.54017C44.067 3.5115 44.749 4.82383 44.749 6.47716C44.749 7.15917 44.6147 7.86183 44.346 8.58517C44.0774 9.28783 43.6124 9.93883 42.951 10.5382C42.2897 11.1375 41.3804 11.6335 40.223 12.0262C39.0864 12.3982 37.6294 12.5842 35.852 12.5842H32.876V11.9642H35.542C36.844 11.9642 37.836 11.7368 38.518 11.2822C39.2207 10.8068 39.6857 10.1868 39.913 9.42216C40.161 8.63683 40.285 7.76883 40.285 6.81817C40.285 5.1855 39.9647 3.92483 39.324 3.03616C38.6834 2.12683 37.5777 1.67217 36.007 1.67217C35.1597 1.67217 34.6017 1.84783 34.333 2.19917C34.085 2.5505 33.961 3.2635 33.961 4.33816V19.7142C33.961 20.4582 34.023 21.0162 34.147 21.3882C34.271 21.7602 34.4984 22.0082 34.829 22.1322C35.1804 22.2562 35.6867 22.3388 36.348 22.3802V23.0002C35.8314 22.9588 35.17 22.9382 34.364 22.9382C33.558 22.9175 32.7417 22.9072 31.915 22.9072C30.985 22.9072 30.117 22.9175 29.311 22.9382C28.505 22.9382 27.8437 22.9588 27.327 23.0002V22.3802C28.009 22.3388 28.5154 22.2562 28.846 22.1322C29.1974 22.0082 29.4247 21.7602 29.528 21.3882C29.652 21.0162 29.714 20.4582 29.714 19.7142V4.33816C29.714 3.5735 29.652 3.0155 29.528 2.66417C29.4247 2.29217 29.1974 2.04417 28.846 1.92017C28.5154 1.7755 28.009 1.69283 27.327 1.67217V1.05217ZM32.876 12.0572C33.8474 12.0985 34.6534 12.1502 35.294 12.2122C35.9554 12.2535 36.5134 12.2948 36.968 12.3362C37.4434 12.3775 37.867 12.4292 38.239 12.4912C39.9544 12.6565 41.215 13.0595 42.021 13.7002C42.8477 14.3202 43.3954 15.2708 43.664 16.5522L44.377 19.7452C44.563 20.5925 44.7594 21.2022 44.966 21.5742C45.1934 21.9255 45.5137 22.0908 45.927 22.0702C46.2164 22.0702 46.4644 21.9978 46.671 21.8532C46.8777 21.6878 47.0844 21.4708 47.291 21.2022L47.725 21.5742C47.2084 22.2148 46.6607 22.6902 46.082 23.0002C45.5034 23.2895 44.7697 23.4342 43.881 23.4342C42.889 23.4342 42.052 23.2068 41.37 22.7522C40.688 22.2768 40.223 21.3882 39.975 20.0862L39.386 16.9862C39.2207 16.1182 39.0244 15.3535 38.797 14.6922C38.5904 14.0308 38.301 13.5142 37.929 13.1422C37.557 12.7702 37.0094 12.5842 36.286 12.5842H32.938L32.876 12.0572Z" fill="#D7D1C5"/>
<path d="M62.4735 0.959165L70.0065 20.3962C70.3165 21.1402 70.6472 21.6568 70.9985 21.9462C71.3705 22.2148 71.7115 22.3595 72.0215 22.3802V23.0002C71.4842 22.9588 70.8332 22.9382 70.0685 22.9382C69.3245 22.9175 68.5599 22.9072 67.7745 22.9072C66.8652 22.9072 66.0179 22.9175 65.2325 22.9382C64.4472 22.9382 63.8065 22.9588 63.3105 23.0002V22.3802C64.3645 22.3388 65.0362 22.1632 65.3255 21.8532C65.6149 21.5225 65.5529 20.8302 65.1395 19.7762L59.6835 5.05116L60.2415 4.36917L55.2815 17.2342C54.7442 18.5982 54.4859 19.6522 54.5065 20.3962C54.5272 21.1195 54.7752 21.6258 55.2505 21.9152C55.7259 22.2045 56.3975 22.3595 57.2655 22.3802V23.0002C56.6042 22.9588 55.9635 22.9382 55.3435 22.9382C54.7235 22.9175 54.1035 22.9072 53.4835 22.9072C53.0289 22.9072 52.5949 22.9175 52.1815 22.9382C51.7889 22.9382 51.4375 22.9588 51.1275 23.0002V22.3802C51.5822 22.2768 52.0265 22.0082 52.4605 21.5742C52.9152 21.1402 53.3492 20.3858 53.7625 19.3112L60.8615 0.959165C61.1095 0.979832 61.3782 0.990165 61.6675 0.990165C61.9569 0.990165 62.2255 0.979832 62.4735 0.959165ZM65.1705 14.0722V14.6922H55.9325L56.2425 14.0722H65.1705Z" fill="#D7D1C5"/>
<path d="M76.6945 1.05217C77.2112 1.07283 77.8725 1.0935 78.6785 1.11417C79.4845 1.13483 80.2905 1.14516 81.0965 1.14516C82.1092 1.14516 83.0702 1.13483 83.9795 1.11417C84.8889 1.0935 85.5295 1.08317 85.9015 1.08317C88.3402 1.08317 90.1589 1.53783 91.3575 2.44716C92.5769 3.3565 93.1865 4.52417 93.1865 5.95017C93.1865 6.6735 92.9902 7.39683 92.5975 8.12017C92.2255 8.8435 91.6159 9.4945 90.7685 10.0732C89.9419 10.6518 88.8569 11.0858 87.5135 11.3752V11.4372C89.3322 11.6025 90.7685 11.9745 91.8225 12.5532C92.8972 13.1112 93.6619 13.7828 94.1165 14.5682C94.5712 15.3328 94.7985 16.1388 94.7985 16.9862C94.7985 18.8668 94.0752 20.3445 92.6285 21.4192C91.1819 22.4732 89.1772 23.0002 86.6145 23.0002C86.1599 23.0002 85.4675 22.9898 84.5375 22.9692C83.6075 22.9278 82.4812 22.9072 81.1585 22.9072C80.3112 22.9072 79.4845 22.9175 78.6785 22.9382C77.8725 22.9382 77.2112 22.9588 76.6945 23.0002V22.3802C77.3765 22.3388 77.8829 22.2562 78.2135 22.1322C78.5649 22.0082 78.7922 21.7602 78.8955 21.3882C79.0195 21.0162 79.0815 20.4582 79.0815 19.7142V4.33816C79.0815 3.5735 79.0195 3.0155 78.8955 2.66417C78.7922 2.29217 78.5649 2.04417 78.2135 1.92017C77.8829 1.7755 77.3765 1.69283 76.6945 1.67217V1.05217ZM85.3745 1.67217C84.5272 1.67217 83.9692 1.84783 83.7005 2.19917C83.4525 2.5505 83.3285 3.2635 83.3285 4.33816V19.7142C83.3285 20.7888 83.4732 21.4915 83.7625 21.8222C84.0519 22.1322 84.6409 22.2872 85.5295 22.2872C87.2242 22.2872 88.4435 21.8222 89.1875 20.8922C89.9522 19.9415 90.3345 18.5982 90.3345 16.8622C90.3345 15.2708 89.9212 14.0412 89.0945 13.1732C88.2885 12.3052 86.9452 11.8712 85.0645 11.8712H82.2435C82.2435 11.8712 82.2435 11.7885 82.2435 11.6232C82.2435 11.4372 82.2435 11.3442 82.2435 11.3442H84.9095C85.9635 11.3442 86.7799 11.1168 87.3585 10.6622C87.9372 10.1868 88.3299 9.56683 88.5365 8.80217C88.7432 8.01683 88.8465 7.17983 88.8465 6.29116C88.8465 4.76183 88.5779 3.61483 88.0405 2.85016C87.5239 2.06483 86.6352 1.67217 85.3745 1.67217Z" fill="#D7D1C5"/>
<path d="M127.143 1.05217V1.67217C126.482 1.69283 125.975 1.7755 125.624 1.92017C125.273 2.04417 125.035 2.29217 124.911 2.66417C124.808 3.0155 124.756 3.5735 124.756 4.33816V19.7142C124.756 20.4582 124.818 21.0162 124.942 21.3882C125.066 21.7602 125.293 22.0082 125.624 22.1322C125.975 22.2562 126.482 22.3388 127.143 22.3802V23.0002C126.606 22.9588 125.924 22.9382 125.097 22.9382C124.27 22.9175 123.433 22.9072 122.586 22.9072C121.656 22.9072 120.778 22.9175 119.951 22.9382C119.145 22.9382 118.494 22.9588 117.998 23.0002V22.3802C118.701 22.3388 119.228 22.2562 119.579 22.1322C119.951 22.0082 120.199 21.7602 120.323 21.3882C120.447 21.0162 120.509 20.4582 120.509 19.7142V2.85016L120.726 2.88116L113.038 23.0932H112.542L104.358 3.03616V18.4122C104.358 19.4042 104.42 20.1792 104.544 20.7372C104.668 21.2745 104.937 21.6672 105.35 21.9152C105.784 22.1425 106.435 22.2975 107.303 22.3802V23.0002C106.91 22.9588 106.404 22.9382 105.784 22.9382C105.164 22.9175 104.575 22.9072 104.017 22.9072C103.521 22.9072 103.015 22.9175 102.498 22.9382C102.002 22.9382 101.589 22.9588 101.258 23.0002V22.3802C101.94 22.2975 102.446 22.1425 102.777 21.9152C103.128 21.6878 103.356 21.3158 103.459 20.7992C103.583 20.2825 103.645 19.5695 103.645 18.6602V4.33816C103.645 3.5735 103.583 3.0155 103.459 2.66417C103.356 2.29217 103.128 2.04417 102.777 1.92017C102.446 1.7755 101.94 1.69283 101.258 1.67217V1.05217C101.589 1.07283 102.002 1.0935 102.498 1.11417C103.015 1.13483 103.521 1.14516 104.017 1.14516C104.782 1.14516 105.526 1.13483 106.249 1.11417C106.972 1.0935 107.613 1.07283 108.171 1.05217L114.836 17.6992L114.154 18.2572L120.633 1.14516C120.943 1.14516 121.263 1.14516 121.594 1.14516C121.945 1.14516 122.276 1.14516 122.586 1.14516C123.433 1.14516 124.27 1.13483 125.097 1.11417C125.924 1.0935 126.606 1.07283 127.143 1.05217Z" fill="#D7D1C5"/>
<path d="M143.578 0.959165L151.111 20.3962C151.421 21.1402 151.752 21.6568 152.103 21.9462C152.475 22.2148 152.816 22.3595 153.126 22.3802V23.0002C152.589 22.9588 151.938 22.9382 151.173 22.9382C150.429 22.9175 149.665 22.9072 148.879 22.9072C147.97 22.9072 147.123 22.9175 146.337 22.9382C145.552 22.9382 144.911 22.9588 144.415 23.0002V22.3802C145.469 22.3388 146.141 22.1632 146.43 21.8532C146.72 21.5225 146.658 20.8302 146.244 19.7762L140.788 5.05116L141.346 4.36917L136.386 17.2342C135.849 18.5982 135.591 19.6522 135.611 20.3962C135.632 21.1195 135.88 21.6258 136.355 21.9152C136.831 22.2045 137.502 22.3595 138.37 22.3802V23.0002C137.709 22.9588 137.068 22.9382 136.448 22.9382C135.828 22.9175 135.208 22.9072 134.588 22.9072C134.134 22.9072 133.7 22.9175 133.286 22.9382C132.894 22.9382 132.542 22.9588 132.232 23.0002V22.3802C132.687 22.2768 133.131 22.0082 133.565 21.5742C134.02 21.1402 134.454 20.3858 134.867 19.3112L141.966 0.959165C142.214 0.979832 142.483 0.990165 142.772 0.990165C143.062 0.990165 143.33 0.979832 143.578 0.959165ZM146.275 14.0722V14.6922H137.037L137.347 14.0722H146.275Z" fill="#D7D1C5"/>
<path d="M174.463 1.05217V1.67217L163.303 22.2872H167.457C168.263 22.2872 168.997 22.1735 169.658 21.9462C170.34 21.7188 170.95 21.3675 171.487 20.8922C172.024 20.3962 172.469 19.7348 172.82 18.9082C173.171 18.0815 173.399 17.0688 173.502 15.8702H174.215C174.153 16.5522 174.122 17.4408 174.122 18.5362C174.122 18.9702 174.132 19.6005 174.153 20.4272C174.194 21.2538 174.256 22.1115 174.339 23.0002C173.202 22.9588 171.911 22.9382 170.464 22.9382C169.038 22.9175 167.757 22.9072 166.62 22.9072C165.339 22.9072 163.985 22.9175 162.559 22.9382C161.133 22.9382 159.79 22.9588 158.529 23.0002V22.3802L169.751 1.76516H165.504C164.409 1.76516 163.458 1.9615 162.652 2.35417C161.846 2.72617 161.195 3.3565 160.699 4.24517C160.203 5.13383 159.862 6.3635 159.676 7.93417H158.963C159.004 7.62416 159.025 7.2625 159.025 6.84916C159.046 6.43583 159.056 5.9915 159.056 5.51617C159.056 5.08217 159.035 4.45183 158.994 3.62517C158.973 2.7985 158.922 1.94083 158.839 1.05217C159.934 1.0935 161.143 1.1245 162.466 1.14516C163.809 1.14516 165.008 1.14516 166.062 1.14516C167.405 1.14516 168.821 1.14516 170.309 1.14516C171.797 1.1245 173.182 1.0935 174.463 1.05217Z" fill="#D7D1C5"/>
<path d="M197.516 1.05217C197.433 1.8995 197.371 2.72616 197.33 3.53217C197.309 4.3175 197.299 4.91683 197.299 5.33016C197.299 5.72283 197.309 6.10517 197.33 6.47716C197.35 6.8285 197.371 7.12817 197.392 7.37617H196.679C196.513 5.95017 196.245 4.83417 195.873 4.02816C195.501 3.2015 194.994 2.62283 194.354 2.29216C193.734 1.94083 192.917 1.76516 191.905 1.76516H190.2C189.58 1.76516 189.104 1.81683 188.774 1.92017C188.443 2.0235 188.216 2.2405 188.092 2.57116C187.988 2.90183 187.937 3.40817 187.937 4.09017V19.9622C187.937 20.6235 187.988 21.1298 188.092 21.4812C188.216 21.8118 188.443 22.0288 188.774 22.1322C189.104 22.2355 189.58 22.2872 190.2 22.2872H191.967C193.021 22.2872 193.899 22.0908 194.602 21.6982C195.325 21.3055 195.904 20.6648 196.338 19.7762C196.772 18.8668 197.092 17.6268 197.299 16.0562H198.012C197.95 16.6968 197.919 17.5235 197.919 18.5362C197.919 18.9702 197.929 19.6005 197.95 20.4272C197.991 21.2538 198.053 22.1115 198.136 23.0002C197.082 22.9588 195.893 22.9382 194.571 22.9382C193.248 22.9175 192.07 22.9072 191.037 22.9072C190.375 22.9072 189.487 22.9072 188.371 22.9072C187.255 22.9072 186.066 22.9175 184.806 22.9382C183.566 22.9382 182.398 22.9588 181.303 23.0002V22.3802C181.985 22.3388 182.491 22.2562 182.822 22.1322C183.173 22.0082 183.4 21.7602 183.504 21.3882C183.628 21.0162 183.69 20.4582 183.69 19.7142V4.33816C183.69 3.5735 183.628 3.0155 183.504 2.66417C183.4 2.29217 183.173 2.04417 182.822 1.92017C182.491 1.7755 181.985 1.69283 181.303 1.67217V1.05217C182.398 1.07283 183.566 1.0935 184.806 1.11417C186.066 1.13483 187.255 1.14516 188.371 1.14516C189.487 1.14516 190.375 1.14516 191.037 1.14516C191.987 1.14516 193.062 1.14516 194.261 1.14516C195.48 1.1245 196.565 1.0935 197.516 1.05217ZM192.525 11.6542C192.525 11.6542 192.525 11.7575 192.525 11.9642C192.525 12.1708 192.525 12.2742 192.525 12.2742H187.007C187.007 12.2742 187.007 12.1708 187.007 11.9642C187.007 11.7575 187.007 11.6542 187.007 11.6542H192.525ZM193.424 7.56217C193.341 8.74017 193.3 9.63917 193.3 10.2592C193.32 10.8792 193.331 11.4475 193.331 11.9642C193.331 12.4808 193.341 13.0492 193.362 13.6692C193.382 14.2892 193.434 15.1882 193.517 16.3662H192.804C192.7 15.6635 192.535 15.0022 192.308 14.3822C192.101 13.7415 191.76 13.2352 191.285 12.8632C190.83 12.4705 190.169 12.2742 189.301 12.2742V11.6542C190.169 11.6542 190.82 11.4268 191.254 10.9722C191.708 10.5175 192.039 9.96983 192.246 9.32917C192.452 8.6885 192.607 8.0995 192.711 7.56217H193.424Z" fill="#D7D1C5"/>
</svg>
