<svg width="151" height="27" viewBox="0 0 151 27" fill="none" xmlns="http://www.w3.org/2000/svg">
<path d="M14.3635 26.4082C16.2675 26.4082 18.0355 26.0795 19.6675 25.4222C21.2995 24.7649 22.7162 23.8469 23.9175 22.6682C25.1415 21.4669 26.0935 20.0729 26.7735 18.4862C27.4535 16.8995 27.7935 15.1769 27.7935 13.3182C27.7935 11.4595 27.4535 9.73687 26.7735 8.15021C26.1162 6.56354 25.1755 5.18087 23.9515 4.00221C22.7502 2.82354 21.3335 1.90554 19.7015 1.24821C18.0695 0.590874 16.2902 0.262207 14.3635 0.262207C12.4368 0.262207 10.6575 0.590874 9.0255 1.24821C7.3935 1.90554 5.9655 2.82354 4.7415 4.00221C3.54017 5.18087 2.5995 6.56354 1.9195 8.15021C1.26217 9.73687 0.933502 11.4595 0.933502 13.3182C0.933502 15.1769 1.2735 16.8995 1.9535 18.4862C2.6335 20.0729 3.57417 21.4669 4.7755 22.6682C5.9995 23.8469 7.4275 24.7649 9.0595 25.4222C10.6915 26.0795 12.4595 26.4082 14.3635 26.4082ZM14.3635 21.6482C12.8222 21.6482 11.4282 21.2969 10.1815 20.5942C8.9575 19.8689 7.98284 18.8829 7.2575 17.6362C6.55484 16.3895 6.2035 14.9502 6.2035 13.3182C6.2035 11.6862 6.55484 10.2469 7.2575 9.00021C7.98284 7.75354 8.9575 6.77887 10.1815 6.07621C11.4282 5.37354 12.8222 5.02221 14.3635 5.02221C15.9048 5.02221 17.2875 5.37354 18.5115 6.07621C19.7582 6.77887 20.7328 7.75354 21.4355 9.00021C22.1608 10.2469 22.5235 11.6862 22.5235 13.3182C22.5235 14.9502 22.1608 16.3895 21.4355 17.6362C20.7328 18.8829 19.7582 19.8689 18.5115 20.5942C17.2875 21.2969 15.9048 21.6482 14.3635 21.6482Z" fill="#D7D1C5"/>
<path d="M33.0611 26.0002H51.5911V21.4102H39.7591L51.2511 4.92021V0.670206H33.7411V5.26021H44.5871L33.0611 21.7502V26.0002Z" fill="#D7D1C5"/>
<path d="M70.3041 26.4082C72.2081 26.4082 73.9761 26.0795 75.6081 25.4222C77.2401 24.7649 78.6568 23.8469 79.8581 22.6682C81.0821 21.4669 82.0341 20.0729 82.7141 18.4862C83.3941 16.8995 83.7341 15.1769 83.7341 13.3182C83.7341 11.4595 83.3941 9.73687 82.7141 8.15021C82.0568 6.56354 81.1161 5.18087 79.8921 4.00221C78.6908 2.82354 77.2741 1.90554 75.6421 1.24821C74.0101 0.590874 72.2308 0.262207 70.3041 0.262207C68.3775 0.262207 66.5981 0.590874 64.9661 1.24821C63.3341 1.90554 61.9061 2.82354 60.6821 4.00221C59.4808 5.18087 58.5401 6.56354 57.8601 8.15021C57.2028 9.73687 56.8741 11.4595 56.8741 13.3182C56.8741 15.1769 57.2141 16.8995 57.8941 18.4862C58.5741 20.0729 59.5148 21.4669 60.7161 22.6682C61.9401 23.8469 63.3681 24.7649 65.0001 25.4222C66.6321 26.0795 68.4001 26.4082 70.3041 26.4082ZM70.3041 21.6482C68.7628 21.6482 67.3688 21.2969 66.1221 20.5942C64.8981 19.8689 63.9235 18.8829 63.1981 17.6362C62.4955 16.3895 62.1441 14.9502 62.1441 13.3182C62.1441 11.6862 62.4955 10.2469 63.1981 9.00021C63.9235 7.75354 64.8981 6.77887 66.1221 6.07621C67.3688 5.37354 68.7628 5.02221 70.3041 5.02221C71.8455 5.02221 73.2281 5.37354 74.4521 6.07621C75.6988 6.77887 76.6735 7.75354 77.3761 9.00021C78.1015 10.2469 78.4641 11.6862 78.4641 13.3182C78.4641 14.9502 78.1015 16.3895 77.3761 17.6362C76.6735 18.8829 75.6988 19.8689 74.4521 20.5942C73.2281 21.2969 71.8455 21.6482 70.3041 21.6482Z" fill="#D7D1C5"/>
<path d="M90.8717 26.0002H96.1417V10.5982L107.532 26.0002H111.612V0.670206H106.342V15.7322L94.9177 0.670206H90.8717V26.0002Z" fill="#D7D1C5"/>
<path d="M119.506 26.0002H136.54V21.4102H124.776V15.5962H135.86V11.0062H124.776V5.26021H136.54V0.670206H119.506V26.0002Z" fill="#D7D1C5"/>
<path d="M145.07 26.0002H150.17V20.9002H145.07V26.0002Z" fill="#D7D1C5"/>
</svg>
