<svg width="231" height="26" viewBox="0 0 231 26" fill="none" xmlns="http://www.w3.org/2000/svg">
<path d="M22.1477 24.9999H16.1627L6.15272 9.80992V24.9999H0.167725V0.254923H6.15272L16.1627 15.5849V0.254923H22.1477V24.9999Z" fill="#D7D1C5"/>
<path d="M41.961 20.4849H32.686L31.146 24.9999H24.846L33.911 0.429923H40.806L49.871 24.9999H43.501L41.961 20.4849ZM40.421 15.9349L37.341 6.83492L34.226 15.9349H40.421Z" fill="#D7D1C5"/>
<path d="M70.3274 0.254923V5.01492H63.6074V24.9999H57.5874V5.01492H50.9374V0.254923H70.3274Z" fill="#D7D1C5"/>
<path d="M79.0101 0.254923V14.5349C79.0101 16.1683 79.3718 17.4166 80.0951 18.2799C80.8418 19.1433 81.9151 19.5749 83.3151 19.5749C84.7151 19.5749 85.7768 19.1433 86.5002 18.2799C87.2468 17.4166 87.6201 16.1683 87.6201 14.5349V0.254923H93.6051V14.5349C93.6051 16.8683 93.1501 18.8399 92.2402 20.4499C91.3301 22.0366 90.0818 23.2383 88.4951 24.0549C86.9318 24.8483 85.1585 25.2449 83.1751 25.2449C81.1918 25.2449 79.4418 24.8483 77.9251 24.0549C76.4085 23.2616 75.2185 22.0599 74.3551 20.4499C73.4918 18.8399 73.0602 16.8683 73.0602 14.5349V0.254923H79.0101Z" fill="#D7D1C5"/>
<path d="M110.659 24.9999L105.304 15.6549H103.939V24.9999H97.9544V0.254923H108.174C110.134 0.254923 111.791 0.593256 113.144 1.26992C114.498 1.94659 115.513 2.87992 116.189 4.06992C116.866 5.23659 117.204 6.57826 117.204 8.09492C117.204 9.89159 116.703 11.4199 115.699 12.6799C114.719 13.9399 113.284 14.8033 111.394 15.2699L117.274 24.9999H110.659ZM103.939 11.5599H107.649C108.839 11.5599 109.714 11.3033 110.274 10.7899C110.834 10.2533 111.114 9.47159 111.114 8.44492C111.114 7.46492 110.823 6.69492 110.239 6.13492C109.679 5.57492 108.816 5.29492 107.649 5.29492H103.939V11.5599Z" fill="#D7D1C5"/>
<path d="M126.54 5.01492V10.1949H134.905V14.7099H126.54V20.2049H135.955V24.9999H120.555V0.254923H135.955V5.01492H126.54Z" fill="#D7D1C5"/>
<path d="M153.704 0.324922V2.31992H142.784V11.7349H152.234V13.6599H142.784V24.9999H140.299V0.324922H153.704Z" fill="#D7D1C5"/>
<path d="M160.498 23.0399H169.458V24.9999H158.013V0.324922H160.498V23.0399Z" fill="#D7D1C5"/>
<path d="M184.362 0.0449219C186.649 0.0449219 188.702 0.581589 190.522 1.65492C192.342 2.72826 193.766 4.22159 194.792 6.13492C195.842 8.04826 196.367 10.2183 196.367 12.6449C196.367 15.0716 195.842 17.2533 194.792 19.1899C193.766 21.1033 192.342 22.5966 190.522 23.6699C188.702 24.7433 186.649 25.2799 184.362 25.2799C182.076 25.2799 180.022 24.7433 178.202 23.6699C176.382 22.5966 174.947 21.1033 173.897 19.1899C172.871 17.2533 172.357 15.0716 172.357 12.6449C172.357 10.2183 172.871 8.04826 173.897 6.13492C174.947 4.22159 176.382 2.72826 178.202 1.65492C180.022 0.581589 182.076 0.0449219 184.362 0.0449219ZM184.362 2.31992C182.566 2.31992 180.944 2.73992 179.497 3.57992C178.074 4.41992 176.942 5.62159 176.102 7.18492C175.286 8.74826 174.877 10.5683 174.877 12.6449C174.877 14.7216 175.286 16.5416 176.102 18.1049C176.942 19.6683 178.074 20.8699 179.497 21.7099C180.944 22.5499 182.566 22.9699 184.362 22.9699C186.159 22.9699 187.769 22.5499 189.192 21.7099C190.639 20.8699 191.771 19.6683 192.587 18.1049C193.427 16.5416 193.847 14.7216 193.847 12.6449C193.847 10.5683 193.427 8.74826 192.587 7.18492C191.771 5.62159 190.639 4.41992 189.192 3.57992C187.769 2.73992 186.159 2.31992 184.362 2.31992Z" fill="#D7D1C5"/>
<path d="M230.703 0.324922L224.333 24.9999H221.393L215.233 3.85992L209.038 24.9999H206.098L199.728 0.324922H202.458L207.603 21.9549L213.833 0.324922H216.598L222.828 21.9899L228.008 0.324922H230.703Z" fill="#D7D1C5"/>
</svg>
