<svg width="174" height="26" viewBox="0 0 174 26" fill="none" xmlns="http://www.w3.org/2000/svg">
<path d="M14.5323 19.5752H7.0073L5.1523 25.0002H0.3573L9.1773 0.325195H12.7123L21.5323 25.0002H16.4923L14.5323 19.5752ZM8.2323 15.7252H13.4823L11.6623 10.2652L10.9273 6.4152H10.7523L10.0173 10.3002L8.2323 15.7252Z" fill="#D7D1C5"/>
<path d="M28.9337 19.1202C28.9337 19.9369 29.0387 20.5319 29.2487 20.9052C29.4587 21.2785 29.797 21.4652 30.2637 21.4652C30.5437 21.4652 30.812 21.4419 31.0687 21.3952C31.3487 21.3485 31.687 21.2435 32.0837 21.0802L32.5737 24.6502C32.2004 24.8369 31.6287 25.0235 30.8587 25.2102C30.0887 25.3969 29.2954 25.4902 28.4787 25.4902C27.1487 25.4902 26.1337 25.1869 25.4337 24.5802C24.7337 23.9502 24.3837 22.9235 24.3837 21.5002V0.500195H28.9337V19.1202Z" fill="#D7D1C5"/>
<path d="M39.9218 19.1202C39.9218 19.9369 40.0268 20.5319 40.2368 20.9052C40.4468 21.2785 40.7851 21.4652 41.2518 21.4652C41.5318 21.4652 41.8001 21.4419 42.0568 21.3952C42.3368 21.3485 42.6751 21.2435 43.0718 21.0802L43.5618 24.6502C43.1885 24.8369 42.6168 25.0235 41.8468 25.2102C41.0768 25.3969 40.2835 25.4902 39.4668 25.4902C38.1368 25.4902 37.1218 25.1869 36.4218 24.5802C35.7218 23.9502 35.3718 22.9235 35.3718 21.5002V0.500195H39.9218V19.1202Z" fill="#D7D1C5"/>
<path d="M59.3099 18.2102H49.8949L47.6549 25.0002H44.7849L52.9749 0.500195H56.4049L64.6649 25.0002H61.6199L59.3099 18.2102ZM50.8049 15.6902H58.5049L54.8999 4.1752H54.4799L50.8049 15.6902Z" fill="#D7D1C5"/>
<path d="M68.2212 25.0002V22.6552H72.9462V9.8452H68.2212V7.5002H74.7662L75.3262 9.7752H75.5012C76.2945 9.05186 77.1812 8.43353 78.1612 7.9202C79.1412 7.40686 80.3079 7.1502 81.6612 7.1502C82.4545 7.1502 83.0845 7.30186 83.5512 7.6052C84.0412 7.90853 84.4145 8.35186 84.6712 8.9352C84.9512 9.51853 85.1379 10.2302 85.2312 11.0702C85.3245 11.8869 85.3712 12.8202 85.3712 13.8702L82.9212 13.9052C82.9212 12.4119 82.7695 11.3152 82.4662 10.6152C82.1862 9.9152 81.6612 9.5652 80.8912 9.5652C80.1679 9.5652 79.5145 9.6702 78.9312 9.8802C78.3479 10.0902 77.8345 10.3469 77.3912 10.6502C76.9712 10.9535 76.6095 11.2569 76.3062 11.5602C76.0029 11.8635 75.7812 12.1202 75.6412 12.3302V22.6552H82.3612V25.0002H68.2212Z" fill="#D7D1C5"/>
<path d="M89.5925 16.2502C89.5925 13.4269 90.3275 11.1985 91.7975 9.5652C93.2675 7.90853 95.3675 7.0802 98.0975 7.0802C99.5675 7.0802 100.828 7.3252 101.878 7.8152C102.951 8.28186 103.838 8.92353 104.538 9.7402C105.238 10.5569 105.751 11.5252 106.078 12.6452C106.428 13.7652 106.603 14.9669 106.603 16.2502C106.603 17.6502 106.416 18.9219 106.043 20.0652C105.669 21.1852 105.121 22.1419 104.398 22.9352C103.674 23.7285 102.776 24.3469 101.703 24.7902C100.653 25.2102 99.4509 25.4202 98.0975 25.4202C96.6509 25.4202 95.3909 25.1869 94.3175 24.7202C93.2442 24.2302 92.3575 23.5769 91.6575 22.7602C90.9575 21.9435 90.4325 20.9752 90.0825 19.8552C89.7559 18.7352 89.5925 17.5335 89.5925 16.2502ZM92.4975 16.2502C92.4975 17.0669 92.5909 17.8835 92.7775 18.7002C92.9875 19.5169 93.3142 20.2519 93.7575 20.9052C94.2009 21.5585 94.7725 22.0835 95.4725 22.4802C96.1959 22.8769 97.0709 23.0752 98.0975 23.0752C99.9642 23.0752 101.364 22.5035 102.298 21.3602C103.254 20.1935 103.733 18.4902 103.733 16.2502C103.733 15.4102 103.628 14.5935 103.418 13.8002C103.231 12.9835 102.904 12.2485 102.438 11.5952C101.994 10.9419 101.411 10.4169 100.688 10.0202C99.9875 9.62353 99.1242 9.4252 98.0975 9.4252C96.2309 9.4252 94.8309 9.99686 93.8975 11.1402C92.9642 12.2835 92.4975 13.9869 92.4975 16.2502Z" fill="#D7D1C5"/>
<path d="M121.989 7.5002H126.959V19.4352C126.959 20.5785 127.029 21.6752 127.169 22.7252H129.514V25.0002H124.859L124.754 22.0252H124.614C124.007 23.0285 123.202 23.8452 122.199 24.4752C121.196 25.1052 119.982 25.4202 118.559 25.4202C117.486 25.4202 116.564 25.2919 115.794 25.0352C115.047 24.8019 114.429 24.3819 113.939 23.7752C113.449 23.1685 113.087 22.3635 112.854 21.3602C112.621 20.3335 112.504 19.0619 112.504 17.5452V9.8452H110.159V7.5002H115.234V16.9852C115.234 17.9419 115.269 18.8052 115.339 19.5752C115.432 20.3219 115.607 20.9635 115.864 21.5002C116.121 22.0135 116.494 22.4102 116.984 22.6902C117.497 22.9469 118.174 23.0752 119.014 23.0752C120.227 23.0752 121.277 22.6785 122.164 21.8852C123.074 21.0919 123.762 20.1002 124.229 18.9102V9.8452H121.989V7.5002Z" fill="#D7D1C5"/>
<path d="M134.225 13.6252C134.225 13.4152 134.214 13.1469 134.19 12.8202C134.19 12.4702 134.179 12.1202 134.155 11.7702C134.132 11.3969 134.097 11.0352 134.05 10.6852C134.027 10.3352 133.992 10.0319 133.945 9.7752H131.6V7.5002H136.29L136.605 10.3352H136.78C137.014 9.93853 137.317 9.55353 137.69 9.1802C138.087 8.78353 138.542 8.43353 139.055 8.1302C139.569 7.80353 140.14 7.54686 140.77 7.3602C141.4 7.17353 142.065 7.0802 142.765 7.0802C143.839 7.0802 144.784 7.19686 145.6 7.4302C146.44 7.66353 147.129 8.08353 147.665 8.6902C148.225 9.27353 148.645 10.0785 148.925 11.1052C149.205 12.1085 149.345 13.3919 149.345 14.9552V25.0002H146.615V15.4802C146.615 13.5435 146.3 12.0852 145.67 11.1052C145.04 10.1252 143.897 9.6352 142.24 9.6352C141.634 9.6352 141.039 9.76353 140.455 10.0202C139.895 10.2535 139.382 10.5685 138.915 10.9652C138.449 11.3619 138.04 11.8285 137.69 12.3652C137.34 12.8785 137.084 13.4269 136.92 14.0102V25.0002H134.225V13.6252Z" fill="#D7D1C5"/>
<path d="M164.872 0.500195H170.542V19.0152C170.542 19.2252 170.553 19.4935 170.577 19.8202C170.6 20.1235 170.623 20.4502 170.647 20.8002C170.693 21.1502 170.74 21.5002 170.787 21.8502C170.833 22.1769 170.88 22.4685 170.927 22.7252H173.272V25.0002H168.617L168.267 22.3052H168.127C167.613 23.1919 166.843 23.9385 165.817 24.5452C164.813 25.1285 163.647 25.4202 162.317 25.4202C159.68 25.4202 157.732 24.6852 156.472 23.2152C155.235 21.7219 154.617 19.4119 154.617 16.2852C154.617 14.8152 154.827 13.5202 155.247 12.4002C155.667 11.2569 156.262 10.3119 157.032 9.5652C157.825 8.7952 158.77 8.21186 159.867 7.8152C160.963 7.41853 162.188 7.2202 163.542 7.2202C164.032 7.2202 164.463 7.23186 164.837 7.2552C165.233 7.27853 165.595 7.31353 165.922 7.3602C166.248 7.40686 166.552 7.47686 166.832 7.5702C167.135 7.6402 167.462 7.72186 167.812 7.8152V2.8452H164.872V0.500195ZM162.772 23.0752C164.195 23.0752 165.315 22.7135 166.132 21.9902C166.948 21.2435 167.508 20.1352 167.812 18.6652V10.5452C167.298 10.1952 166.715 9.93853 166.062 9.7752C165.432 9.61186 164.592 9.5302 163.542 9.5302C161.675 9.5302 160.205 10.0785 159.132 11.1752C158.058 12.2485 157.522 13.9519 157.522 16.2852C157.522 17.2419 157.603 18.1402 157.767 18.9802C157.953 19.7969 158.245 20.5085 158.642 21.1152C159.062 21.7219 159.61 22.2002 160.287 22.5502C160.963 22.9002 161.792 23.0752 162.772 23.0752Z" fill="#D7D1C5"/>
</svg>
