<svg width="116" height="54" viewBox="0 0 116 54" fill="none" xmlns="http://www.w3.org/2000/svg">
<path d="M0.5 0H105.5C111.023 0 115.5 4.47715 115.5 10V44C115.5 49.5228 111.023 54 105.5 54H0.5V0Z" fill="#F8F8FB"/>
<path fill-rule="evenodd" clip-rule="evenodd" d="M53.0653 9.37612C51.1118 9.8069 49.5028 11.2426 48.733 13.2419C48.1059 14.8701 48.0721 16.7947 48.6415 18.4353C48.9866 19.4297 49.4317 20.1318 50.2112 20.9115C51.0265 21.727 51.5432 22.07 52.4136 22.3734C53.1691 22.6368 54.4586 22.7054 55.2337 22.5236C57.4853 21.9951 59.2191 20.1003 59.804 17.5288C60.0127 16.6114 59.9781 15.0381 59.7284 14.0941C58.8642 10.827 55.9247 8.74563 53.0653 9.37612ZM65.8805 12.4614C63.5643 12.8286 61.5935 14.7391 60.9145 17.2753C60.6812 18.1467 60.6782 19.6791 60.9082 20.531C61.5722 22.9905 63.4622 24.5284 65.8067 24.517C68.2555 24.505 70.4001 22.7791 71.3321 20.07C71.5885 19.3251 71.5942 19.2799 71.5927 18.0181C71.5914 16.8412 71.5735 16.6753 71.3898 16.1284C70.8035 14.3841 69.4978 13.064 67.8917 12.592C67.3712 12.439 66.4137 12.3768 65.8805 12.4614ZM42.1414 17.1227C39.2548 17.8226 37.7401 21.1617 38.8819 24.308C39.5332 26.1025 40.9536 27.5055 42.6653 28.0451C43.4338 28.2874 44.6319 28.2868 45.4159 28.0437C46.5537 27.6909 47.5735 26.8042 48.1437 25.6719C48.5979 24.7701 48.7511 24.0082 48.7076 22.8683C48.6758 22.0366 48.6329 21.7784 48.423 21.1576C48.0608 20.0862 47.643 19.421 46.8177 18.6017C46.2457 18.0337 45.9745 17.83 45.4363 17.5645C44.3526 17.0298 43.1754 16.8719 42.1414 17.1227ZM72.7705 22.7539C72.4695 22.8199 71.8672 23.0465 71.4321 23.2574C69.3604 24.2615 67.9607 26.4702 67.9634 28.7309C67.9652 30.2008 68.4011 31.2983 69.3619 32.2528C70.3628 33.2469 71.3761 33.6255 72.8487 33.5554C73.8196 33.5092 74.501 33.3126 75.38 32.8253C76.0592 32.4487 77.2145 31.2956 77.6413 30.5685C78.6523 28.8458 78.7796 26.7877 77.9751 25.173C77.5858 24.3916 77.1867 23.9268 76.5051 23.4611C75.4517 22.7413 74.044 22.4748 72.7705 22.7539ZM55.4073 23.643C53.7007 23.9436 52.2164 24.6196 50.8758 25.7069C49.8309 26.5544 49.2867 27.2839 46.7532 31.2331C45.415 33.319 44.2213 35.2367 44.1005 35.4948C43.3657 37.0648 43.3689 39.0922 44.1089 40.6736C44.9066 42.3783 46.3946 43.5956 48.2557 44.0663C48.8132 44.2073 49.0706 44.2273 49.9341 44.1966C50.8197 44.1651 51.0416 44.1288 51.6187 43.9213C54.6331 42.8371 54.9496 42.7701 57.0533 42.7726C58.3695 42.774 58.7434 42.8017 59.4143 42.9472C60.178 43.1127 60.4875 43.2104 62.3315 43.8675C63.0736 44.1321 63.2464 44.1634 64.13 44.1943C65.534 44.2433 66.4961 44.0091 67.63 43.3421C68.2592 42.9719 69.2742 41.9391 69.6785 41.2576C70.2305 40.3272 70.4751 39.4949 70.5219 38.388C70.5675 37.3094 70.4449 36.5506 70.0876 35.7003C69.8885 35.2264 66.4604 29.776 65.1385 27.8316C64.6625 27.1315 63.715 26.0974 63.0743 25.579C61.0402 23.933 58.0491 23.1777 55.4073 23.643Z" fill="black"/>
</svg>
