<svg width="40" height="40" viewBox="0 0 40 40" fill="none" xmlns="http://www.w3.org/2000/svg">
<g clip-path="url(#clip0_3_20)">
<path d="M25.629 11.6606L25.6904 11.8214H25.8625H32.25C32.6462 11.8214 33.0272 11.982 33.3089 12.2694C33.5908 12.5571 33.75 12.9482 33.75 13.3571V31.2143C33.75 31.6232 33.5908 32.0144 33.3089 32.302C33.0272 32.5895 32.6462 32.75 32.25 32.75H7.75C7.35382 32.75 6.97283 32.5895 6.69112 32.302C6.40924 32.0144 6.25 31.6232 6.25 31.2143V13.3571C6.25 12.9482 6.40924 12.5571 6.69112 12.2694C6.97283 11.982 7.35382 11.8214 7.75 11.8214H14.1375H14.3102L14.3713 11.6599L15.2901 9.23132L15.2901 9.23129C15.3999 8.94079 15.5932 8.69198 15.8436 8.5171C16.0939 8.34227 16.3897 8.24937 16.692 8.25H16.6925H23.3071C23.608 8.25099 23.902 8.3446 24.1507 8.51926C24.3996 8.69404 24.5918 8.94202 24.7012 9.23129L24.7015 9.23206L25.629 11.6606ZM8.97522 16.564C9.15298 16.7454 9.39515 16.8482 9.64875 16.8482H11.7487C12.0024 16.8482 12.2445 16.7454 12.4223 16.564C12.5999 16.3828 12.6988 16.1381 12.6988 15.8839C12.6988 15.6298 12.5999 15.3851 12.4223 15.2039C12.2445 15.0225 12.0024 14.9196 11.7487 14.9196H9.64875C9.39515 14.9196 9.15298 15.0225 8.97522 15.2039C8.79764 15.3851 8.69875 15.6298 8.69875 15.8839C8.69875 16.1381 8.79764 16.3828 8.97522 16.564ZM15.484 28.2809C16.8203 29.192 18.3919 29.6786 20 29.6786C22.1565 29.6786 24.2237 28.8044 25.747 27.2499C27.2702 25.6957 28.125 23.5888 28.125 21.3929C28.125 19.7552 27.6491 18.1539 26.757 16.7915C25.8648 15.429 24.5962 14.3663 23.111 13.7386C21.6257 13.1108 19.991 12.9464 18.4139 13.2665C16.8369 13.5866 15.3889 14.3766 14.253 15.5358C13.1171 16.6949 12.3441 18.171 12.0309 19.7773C11.7178 21.3836 11.8785 23.0486 12.4928 24.562C13.1072 26.0755 14.1478 27.3698 15.484 28.2809Z" fill="white" stroke="black" stroke-width="0.5"/>
<path d="M14 21.2891C14.0017 22.4912 14.3389 23.6677 14.9716 24.6796C15.6044 25.6916 16.5062 26.4967 17.5708 27L18.5178 25.4498C17.941 25.198 17.4241 24.8213 17.0027 24.3453C16.5813 23.8694 16.2653 23.3056 16.0765 22.6926C15.8877 22.0796 15.8305 21.4319 15.9088 20.7941C15.9872 20.1563 16.1992 19.5434 16.5304 18.9976C16.8616 18.4517 17.304 17.9859 17.8274 17.632C18.3507 17.2781 18.9426 17.0445 19.5622 16.9474C20.1819 16.8502 20.8148 16.8917 21.4174 17.0691C22.0199 17.2464 22.5779 17.5554 23.053 17.9749L24 16.4068C23.1001 15.6576 22.0117 15.1852 20.8608 15.0443C19.7099 14.9035 18.5436 15.0999 17.497 15.6108C16.4505 16.1218 15.5666 16.9263 14.9477 17.9313C14.3287 18.9363 14.0002 20.1005 14 21.2891Z" fill="white"/>
</g>
<defs>
<clipPath id="clip0_3_20">
<rect width="40" height="40" fill="white"/>
</clipPath>
</defs>
</svg>
