<svg width="40" height="40" viewBox="0 0 40 40" fill="none" xmlns="http://www.w3.org/2000/svg">
<path fill-rule="evenodd" clip-rule="evenodd" d="M18.872 0.112882C17.72 0.363736 16.7552 0.979159 15.7638 2.09562C11.8424 6.51179 9.87868 14.5843 10.9625 21.8325C11.7946 27.3965 14.3682 30.9891 18.0923 31.7849C18.4311 31.8574 18.8397 31.9268 19.0002 31.9392L19.292 31.9617L19.3337 35.8249L19.3754 39.6881L19.5722 39.8474C19.8236 40.0509 20.1777 40.0509 20.4291 39.8474L20.6259 39.6881L20.6676 35.8249L20.7093 31.9617L21.2118 31.9062C23.3995 31.6649 25.3333 30.4412 26.6792 28.4467C29.5756 24.1544 30.1739 16.2187 28.1138 9.41908C27.0802 6.00766 25.1594 2.71196 23.3083 1.17391C22.1304 0.195167 20.3976 -0.219172 18.872 0.112882ZM20.4291 12.1544L20.6259 12.3137L20.6676 16.2087L20.7093 20.1038L21.8203 18.7653C22.4314 18.0292 22.9878 17.4052 23.0568 17.3787C23.3185 17.2783 23.6002 17.3378 23.7976 17.5353C24.2081 17.9457 24.1475 18.0573 22.3331 20.2342L20.6639 22.2368L20.6866 23.8381L20.7093 25.4394L21.8203 24.1009C22.4314 23.3648 22.9878 22.7408 23.0568 22.7143C23.3185 22.6139 23.6002 22.6733 23.7976 22.8708C24.208 23.2812 24.1474 23.393 22.3349 25.5675L20.6676 27.568V29.7857V32.0034H20.0006H19.3337V28.4596V24.9159L17.6663 22.9059C15.8554 20.7229 15.7951 20.6115 16.2036 20.2031C16.464 19.9426 16.8387 19.9356 17.1101 20.186C17.222 20.2892 17.7587 20.9163 18.3028 21.5798L19.292 22.786L19.3147 21.1827L19.3373 19.5795L17.6682 17.5705C15.8547 15.388 15.7945 15.2766 16.2036 14.8675C16.464 14.6071 16.8387 14.6001 17.1101 14.8504C17.222 14.9536 17.7587 15.5808 18.3028 16.2442L19.292 17.4505L19.3337 14.882L19.3754 12.3136L19.5722 12.1543C19.8236 11.9509 20.1778 11.951 20.4291 12.1544Z" fill="white"/>
</svg>
