<svg width="220" height="37" viewBox="0 0 220 37" fill="none" xmlns="http://www.w3.org/2000/svg">
<circle cx="8.5" cy="16.5" r="8" fill="#FF0000" stroke="white"/>
<path d="M27.6044 24V12.3636H29.0135V22.75H34.4226V24H27.6044ZM38.0135 12.3636V24H36.6044V12.3636H38.0135ZM41.3161 12.3636L44.7706 22.1591H44.907L48.3615 12.3636H49.8388L45.5661 24H44.1115L39.8388 12.3636H41.3161ZM51.6513 24V12.3636H58.674V13.6136H53.0604V17.5455H58.3104V18.7955H53.0604V22.75H58.7649V24H51.6513Z" fill="white"/>
<g opacity="0.600006">
<g opacity="0.600006">
<path opacity="0.600006" d="M149.25 37H105.745C102.571 37 100 34.4396 100 31.2806V5.71714C100 2.56038 102.571 0 105.745 0H149.25C152.425 0 155 2.56038 155 5.71714V31.2806C155 34.4396 152.425 37 149.25 37Z" fill="#454649"/>
</g>
</g>
<path d="M132.03 12.5445V24.1808H130.621V14.0217H130.553L127.712 15.9081V14.4763L130.621 12.5445H132.03ZM139.308 24.3399C138.558 24.3399 137.89 24.2111 137.303 23.9535C136.719 23.696 136.255 23.338 135.911 22.8797C135.57 22.4176 135.384 21.8816 135.354 21.2717H136.786C136.816 21.6467 136.945 21.9706 137.172 22.2433C137.399 22.5123 137.697 22.7206 138.064 22.8683C138.431 23.016 138.839 23.0899 139.286 23.0899C139.786 23.0899 140.229 23.0028 140.615 22.8285C141.001 22.6543 141.304 22.4119 141.524 22.1013C141.744 21.7907 141.854 21.4308 141.854 21.0217C141.854 20.5937 141.748 20.2168 141.536 19.891C141.323 19.5615 141.013 19.3039 140.604 19.1183C140.195 18.9327 139.695 18.8399 139.104 18.8399H138.172V17.5899H139.104C139.566 17.5899 139.971 17.5066 140.32 17.3399C140.672 17.1732 140.947 16.9384 141.143 16.6354C141.344 16.3323 141.445 15.9763 141.445 15.5672C141.445 15.1732 141.358 14.8304 141.183 14.5388C141.009 14.2471 140.763 14.0198 140.445 13.857C140.13 13.6941 139.759 13.6126 139.331 13.6126C138.929 13.6126 138.551 13.6865 138.195 13.8342C137.842 13.9782 137.554 14.1884 137.331 14.4649C137.108 14.7376 136.986 15.0672 136.967 15.4535H135.604C135.626 14.8437 135.81 14.3096 136.155 13.8513C136.5 13.3891 136.95 13.0293 137.507 12.7717C138.068 12.5141 138.683 12.3854 139.354 12.3854C140.073 12.3854 140.691 12.5312 141.206 12.8229C141.721 13.1107 142.117 13.4914 142.393 13.9649C142.67 14.4384 142.808 14.9498 142.808 15.499C142.808 16.1543 142.636 16.713 142.291 17.1751C141.95 17.6373 141.486 17.9573 140.899 18.1354V18.2263C141.634 18.3475 142.208 18.66 142.621 19.1638C143.034 19.6638 143.24 20.2831 143.24 21.0217C143.24 21.6543 143.068 22.2225 142.723 22.7263C142.382 23.2263 141.916 23.6202 141.325 23.9081C140.734 24.196 140.062 24.3399 139.308 24.3399Z" fill="white"/>
<path d="M106.596 16.111C107.894 14.7031 110.739 12.161 114.384 12.161C118.082 12.161 120.584 14.7769 121.659 16.1755" stroke="white" stroke-miterlimit="10" stroke-linecap="round" stroke-linejoin="round"/>
<path d="M119.418 20.1214C119.418 22.8572 117.194 25.0704 114.447 25.0704C111.729 25.0704 109.502 22.8572 109.502 20.1214C109.502 17.3856 111.729 15.1724 114.447 15.1724C114.722 15.1724 115 15.2031 115.247 15.2339C114.753 15.6642 114.447 16.3097 114.447 17.0167C114.447 18.3693 115.556 19.4759 116.946 19.4759C117.842 19.4759 118.645 18.9841 119.05 18.2771C119.294 18.8611 119.418 19.4759 119.418 20.1214Z" fill="white"/>
<path d="M195 6.50045L219 30.5" stroke="white" stroke-width="1.33333" stroke-miterlimit="10" stroke-linejoin="round"/>
<path d="M195 30.4996L219 6.50007" stroke="white" stroke-width="1.33333" stroke-miterlimit="10" stroke-linejoin="round"/>
</svg>
