<svg width="131" height="31" viewBox="0 0 131 31" fill="none" xmlns="http://www.w3.org/2000/svg">
<path d="M10.4801 24.1602C10.4801 25.2982 10.5774 26.1367 10.7721 26.6758C10.9817 27.2148 11.2587 27.5742 11.6031 27.7539C11.9625 27.9336 12.524 28.0908 13.2877 28.2256C14.1712 28.3753 14.9573 28.57 15.6461 28.8096L15.6012 30H0.664673V28.832C1.09892 28.6374 1.48824 28.5026 1.83264 28.4277C2.19202 28.3379 2.64124 28.248 3.1803 28.1582C3.85413 28.0684 4.34827 27.9411 4.66272 27.7764C4.97717 27.5967 5.21676 27.2074 5.38147 26.6084C5.56116 26.0094 5.651 25.0586 5.651 23.7559V6.86523C5.651 5.63737 5.54618 4.73145 5.33655 4.14746C5.12691 3.56348 4.84989 3.18913 4.50549 3.02441C4.17607 2.8597 3.68193 2.73242 3.02307 2.64258C2.48401 2.55273 2.03479 2.46289 1.67542 2.37305C1.33101 2.2832 0.964152 2.12598 0.574829 1.90137L0.619751 0.755859H15.5114L15.5563 1.92383C15.2418 2.04362 14.7926 2.1709 14.2086 2.30566C13.3851 2.5153 12.7262 2.72493 12.2321 2.93457C11.7379 3.14421 11.3186 3.47363 10.9742 3.92285C10.6448 4.3571 10.4801 4.95605 10.4801 5.71973V24.1602Z" fill="#D7D1C5"/>
<path d="M51.0868 27.8662C49.5145 28.6898 47.7102 29.3486 45.6737 29.8428C43.6372 30.3369 41.5783 30.584 39.4969 30.584C36.1128 30.584 33.133 29.9701 30.5575 28.7422C27.9969 27.4993 26.0054 25.7549 24.5829 23.5088C23.1753 21.2477 22.4715 18.6348 22.4715 15.6699C22.4715 12.6302 23.2801 9.9349 24.8973 7.58398C26.5145 5.23307 28.6857 3.41374 31.411 2.12598C34.1363 0.838216 37.1086 0.194336 40.328 0.194336C42.0949 0.194336 43.7121 0.329102 45.1796 0.598633C46.662 0.868164 48.3316 1.33236 50.1883 1.99121L50.8622 8.77441C50.398 8.81934 49.9637 8.8418 49.5594 8.8418C49.3498 8.66211 49.1551 8.43001 48.9755 8.14551C48.8107 7.861 48.5786 7.43424 48.2792 6.86523C48.1294 6.56576 47.9722 6.27376 47.8075 5.98926C47.6428 5.68978 47.493 5.45768 47.3583 5.29297C45.4715 3.04688 42.9335 1.92383 39.744 1.92383C37.468 1.92383 35.424 2.48535 33.6122 3.6084C31.8003 4.73145 30.3853 6.28125 29.3671 8.25781C28.3488 10.2194 27.8397 12.4131 27.8397 14.8389C27.8397 17.4593 28.3413 19.8177 29.3446 21.9141C30.3628 24.0104 31.7854 25.6501 33.6122 26.833C35.439 28.016 37.5279 28.6074 39.8788 28.6074C41.1216 28.6074 42.2147 28.5026 43.1581 28.293C44.1164 28.0684 45.0223 27.6865 45.8758 27.1475C46.0555 25.6201 46.1454 23.7184 46.1454 21.4424C46.1454 20.0199 45.9357 18.7321 45.5165 17.5791C45.3518 17.1149 45.0373 16.793 44.5731 16.6133C44.1239 16.4186 43.51 16.2614 42.7313 16.1416C42.0425 16.0218 41.5633 15.9095 41.2938 15.8047C41.2938 15.5801 41.3013 15.3555 41.3163 15.1309C41.3312 14.8913 41.3387 14.7266 41.3387 14.6367H54.8153C54.8153 14.7266 54.8228 14.8913 54.8378 15.1309C54.8527 15.3555 54.8602 15.5801 54.8602 15.8047C54.6656 15.8796 54.4484 15.9544 54.2089 16.0293C53.4901 16.2839 52.9286 16.5234 52.5243 16.748C52.12 16.9727 51.7756 17.3171 51.4911 17.7812C51.2215 18.2305 51.0868 18.8369 51.0868 19.6006V27.8662Z" fill="#D7D1C5"/>
<path d="M65.3692 5.49512C64.9799 4.86621 64.5756 4.36458 64.1564 3.99023C63.7371 3.61589 63.3178 3.33138 62.8985 3.13672C62.4793 2.94206 61.9177 2.72493 61.214 2.48535C60.5401 2.26074 60.0161 2.07357 59.6417 1.92383V0.755859H67.4806L88.6163 22.6104V8.48242C88.6163 7.0599 88.4142 5.76465 88.0099 4.59668C87.8452 4.11751 87.6206 3.74316 87.336 3.47363C87.0515 3.2041 86.7446 3.00944 86.4151 2.88965C86.0857 2.76986 85.644 2.64258 85.09 2.50781C85.0001 2.47786 84.768 2.41797 84.3937 2.32812C84.0343 2.22331 83.7049 2.09603 83.4054 1.94629C83.4054 1.55697 83.4278 1.16016 83.4728 0.755859H95.3097V1.96875C94.8904 2.16341 94.4562 2.35059 94.0069 2.53027C92.9138 3.00944 92.1577 3.40625 91.7384 3.7207C91.3191 4.03516 91.0196 4.5293 90.84 5.20312C90.6752 5.86198 90.5854 6.94759 90.5704 8.45996C90.5704 9.22363 90.5554 10.3542 90.5255 11.8516C90.5105 12.9896 90.4956 14.4121 90.4806 16.1191C90.4656 17.8112 90.4581 19.7952 90.4581 22.0713C90.4581 23.0596 90.548 24.527 90.7276 26.4736C90.8774 28.1208 90.9597 29.3636 90.9747 30.2021C90.6902 30.307 90.3233 30.3594 89.8741 30.3594C89.395 30.3594 88.9682 30.307 88.5939 30.2021C87.5157 28.8844 86.2879 27.4844 84.9103 26.002L67.1661 7.33691V23.1045C67.1661 24.1077 67.2934 25.1185 67.548 26.1367C67.6677 26.6458 67.8849 27.0426 68.1993 27.3271C68.5138 27.5967 68.8507 27.7913 69.2101 27.9111C69.5844 28.0309 70.086 28.1507 70.715 28.2705C71.5834 28.4053 72.2273 28.585 72.6466 28.8096C72.6466 29.1989 72.6241 29.5957 72.5792 30H59.9112C59.8813 29.7305 59.8663 29.3262 59.8663 28.7871L60.8995 28.5176C61.8578 28.278 62.614 28.0459 63.1681 27.8213C63.7371 27.5967 64.2237 27.2298 64.628 26.7207C65.0473 26.2116 65.2944 25.5153 65.3692 24.6318V5.49512Z" fill="#D7D1C5"/>
<path d="M109.48 2.41797C108.102 2.41797 107.009 2.47786 106.201 2.59766C105.676 2.67253 105.197 2.88216 104.763 3.22656C104.344 3.57096 103.977 3.96029 103.662 4.39453C103.363 4.82878 102.996 5.41276 102.562 6.14648C102.113 6.9401 101.723 7.53906 101.394 7.94336H100.361L100.922 0.621094C103.393 0.725911 106.582 0.77832 110.491 0.77832L119.25 0.755859H122.193C125.217 0.755859 127.666 0.695964 129.537 0.576172L130.256 7.96582H129.178C128.953 7.69629 128.721 7.35938 128.482 6.95508C128.242 6.53581 128.085 6.26628 128.01 6.14648C127.411 5.08333 126.85 4.25228 126.326 3.65332C125.816 3.05436 125.21 2.70247 124.506 2.59766C123.997 2.52279 123.48 2.47786 122.956 2.46289C122.447 2.43294 121.803 2.41797 121.025 2.41797H117.588V24.5869C117.588 25.7399 117.783 26.6009 118.172 27.1699C118.577 27.724 119.101 28.0983 119.744 28.293C120.403 28.4876 121.377 28.6673 122.664 28.832C122.664 29.3561 122.649 29.7454 122.619 30H107.75L107.705 28.832C107.96 28.7422 108.357 28.6224 108.896 28.4727C109.779 28.2031 110.476 27.9486 110.985 27.709C111.494 27.4694 111.913 27.1025 112.243 26.6084C112.587 26.1143 112.759 25.4404 112.759 24.5869V2.41797H109.48Z" fill="#D7D1C5"/>
</svg>
