<svg width="80" height="304" viewBox="0 0 80 304" fill="none" xmlns="http://www.w3.org/2000/svg">
<path d="M46.0111 191.408C39.7008 191.408 38.0033 196.385 38.0033 196.385C38.0033 196.385 36.3058 191.408 29.9932 191.408C21.1113 191.408 20.5831 200.694 23.3416 205.094C25.8832 209.142 38.0033 218.965 38.0033 218.965C38.0033 218.965 50.1211 209.142 52.6627 205.094C55.4235 200.694 54.8953 191.408 46.0111 191.408Z" fill="#C9455E"/>
<path d="M67.4288 87.5123C61.1162 87.5123 59.4164 92.4895 59.4164 92.4895C59.4164 92.4895 57.7212 87.5123 51.4086 87.5123C42.5267 87.5123 41.9985 96.7979 44.757 101.198C47.2986 105.246 59.4164 115.069 59.4164 115.069C59.4164 115.069 71.5365 105.246 74.0781 101.198C76.8389 96.7979 76.3107 87.5123 67.4288 87.5123Z" fill="#C9455E"/>
<g opacity="0.600006">
<g opacity="0.600006">
<path opacity="0.600006" d="M63.9683 139.883C57.1806 139.883 55.3562 145.237 55.3562 145.237C55.3562 145.237 53.5319 139.883 46.7418 139.883C37.1911 139.883 36.6214 149.87 39.5897 154.603C42.3228 158.957 55.3562 169.521 55.3562 169.521C55.3562 169.521 68.3896 158.957 71.1227 154.603C74.091 149.87 73.5237 139.883 63.9683 139.883Z" fill="#B0B0B0"/>
</g>
</g>
<g opacity="0.600006">
<g opacity="0.600006">
<path opacity="0.600006" d="M30.4114 72.6942C23.6237 72.6942 21.7994 78.045 21.7994 78.045C21.7994 78.045 19.975 72.6942 13.185 72.6942C3.6319 72.6942 3.06453 82.6808 6.03286 87.4135C8.76363 91.768 21.7994 102.329 21.7994 102.329C21.7994 102.329 34.8305 91.768 37.5635 87.4135C40.5319 82.6808 39.9645 72.6942 30.4114 72.6942Z" fill="#B0B0B0"/>
</g>
</g>
<g opacity="0.600006">
<g opacity="0.600006">
<path opacity="0.600006" d="M46.6163 1.52588e-05C39.8286 1.52588e-05 38.0043 5.35084 38.0043 5.35084C38.0043 5.35084 36.1776 1.52588e-05 29.3876 1.52588e-05C19.8368 1.52588e-05 19.2695 9.98669 22.2378 14.7194C24.9685 19.0739 38.0043 29.6371 38.0043 29.6371C38.0043 29.6371 51.0354 19.0739 53.7685 14.7194C56.7368 9.98669 56.1694 1.52588e-05 46.6163 1.52588e-05Z" fill="#B0B0B0"/>
</g>
</g>
<g opacity="0.600006">
<g opacity="0.600006">
<path opacity="0.600006" d="M46.6163 154.701C39.8286 154.701 38.0043 160.052 38.0043 160.052C38.0043 160.052 36.1776 154.701 29.3876 154.701C19.8368 154.701 19.2695 164.688 22.2378 169.421C24.9685 173.775 38.0043 184.339 38.0043 184.339C38.0043 184.339 51.0354 173.775 53.7685 169.421C56.7368 164.688 56.1694 154.701 46.6163 154.701Z" fill="white"/>
</g>
</g>
<g opacity="0.600006">
<g opacity="0.600006">
<path opacity="0.600006" d="M59.3047 103.141C52.517 103.141 50.6926 108.492 50.6926 108.492C50.6926 108.492 48.8683 103.141 42.0783 103.141C32.5275 103.141 31.9601 113.128 34.9285 117.858C37.6592 122.215 50.6926 132.776 50.6926 132.776C50.6926 132.776 63.7261 122.215 66.4591 117.858C69.4275 113.128 68.8601 103.141 59.3047 103.141Z" fill="white"/>
</g>
</g>
<path d="M51.6254 257.965C42.4622 257.965 40.0034 265.189 40.0034 265.189C40.0034 265.189 37.5378 257.965 28.3746 257.965C15.4826 257.965 14.7125 271.444 18.7216 277.831C22.4099 283.708 40.0034 297.965 40.0034 297.965C40.0034 297.965 57.5935 283.708 61.2784 277.831C65.2875 271.444 64.5174 257.965 51.6254 257.965Z" stroke="white" stroke-width="1.33333" stroke-miterlimit="10" stroke-linejoin="round"/>
</svg>
