<svg width="40" height="40" viewBox="0 0 40 40" fill="none" xmlns="http://www.w3.org/2000/svg">
<path fill-rule="evenodd" clip-rule="evenodd" d="M26.8592 0.0743749C23.2006 0.539149 20.1791 3.32011 19.2395 7.0873C19.0567 7.82048 19.0253 8.12146 19.0232 9.15788C19.0207 10.481 19.1244 11.1278 19.5484 12.4361C20.4586 15.2439 22.5401 18.7711 25.3656 22.2928C25.8482 22.8943 26.3635 23.4666 26.5107 23.5644C27.824 24.4376 29.2286 24.1343 30.3506 22.7354C34.3097 17.7986 36.5439 13.6399 37.0124 10.335C37.3892 7.6773 36.3319 4.62502 34.347 2.64021C32.3509 0.644004 29.6529 -0.280451 26.8592 0.0743749ZM28.8027 5.92751C30.7766 6.43828 31.8019 8.5581 30.9528 10.3726C29.9009 12.6205 26.9377 12.9331 25.4418 10.9538C24.3206 9.47035 24.7491 7.26702 26.3448 6.31111C27.1436 5.83267 27.9499 5.7068 28.8027 5.92751ZM12.9656 15.5064C12.5057 15.6443 12.145 16.1719 12.2436 16.5626C12.3218 16.8729 13.4701 20.1054 13.5653 20.2832C13.6764 20.4908 14.1155 20.7583 14.3458 20.7587C14.4442 20.7589 15.2774 20.4877 16.1973 20.156C17.3552 19.7385 17.9402 19.4855 18.099 19.3334C18.6038 18.8497 18.4265 18.1004 17.7397 17.8149L17.3667 17.6598L16.1863 18.0863C15.5371 18.3208 14.9907 18.4976 14.9723 18.4791C14.9538 18.4606 14.7366 17.8854 14.4897 17.2009C14.2428 16.5164 13.9782 15.886 13.9016 15.8C13.7861 15.6701 13.2988 15.4061 13.2193 15.4303C13.2068 15.4341 13.0926 15.4683 12.9656 15.5064ZM9.11634 16.9011C8.87971 17.0208 8.548 17.4867 8.548 17.6993C8.548 17.782 9.25951 19.8008 10.1292 22.1857C10.9988 24.5706 11.681 26.549 11.645 26.582C11.6091 26.6151 9.79915 27.2857 7.62298 28.0721C5.44681 28.8587 3.57317 29.5503 3.45926 29.6092C3.34543 29.668 3.18447 29.7912 3.10144 29.8829C2.91097 30.0934 2.84815 30.679 2.98777 30.943C3.11365 31.181 3.57988 31.5113 3.78999 31.5113C3.87221 31.5113 5.80091 30.8383 8.07595 30.0157C10.3511 29.1931 12.2561 28.5201 12.3094 28.5201C12.3643 28.5201 13.1887 30.6737 14.2051 33.4718C15.1943 36.1953 16.1111 38.7046 16.2424 39.0482C16.5201 39.7751 16.7627 40 17.2687 40C17.6795 40 18.1391 39.6322 18.2117 39.2455C18.2505 39.0391 17.7269 37.5151 15.5549 31.5109C12.1368 22.0622 10.4347 17.4041 10.3261 17.201C10.1389 16.851 9.51894 16.6974 9.11634 16.9011ZM17.5621 21.6523C14.9546 22.627 14.773 22.7367 14.773 23.3368C14.773 23.5444 15.6397 26.0227 17.3666 30.753C18.793 34.6606 20.0124 37.9684 20.0762 38.1037C20.3379 38.659 21.0445 38.7928 21.5182 38.377C22.0286 37.9288 22.0265 37.9174 20.8437 34.6465C20.2603 33.0333 19.7835 31.6738 19.7842 31.6253C19.7848 31.5767 21.9227 30.7618 24.535 29.8142C27.1473 28.8666 29.4535 28.0261 29.6598 27.9465L30.0351 27.8018L30.4562 28.9629C30.6908 29.6099 30.9543 30.1962 31.051 30.2868C31.5865 30.7884 32.3626 30.5859 32.6321 29.8746C32.7244 29.6309 32.6583 29.376 32.1312 27.9428L31.8445 27.1633L32.9436 26.7706C33.5481 26.5545 34.1315 26.308 34.2403 26.2227C35.0459 25.5904 34.3846 24.3001 33.3943 24.5724C33.2238 24.6193 29.9589 25.8007 26.1391 27.1977C22.3193 28.5947 19.1593 29.7262 19.117 29.7121C18.9785 29.6659 16.9724 24.0386 17.0729 23.978C17.1233 23.9477 17.9036 23.6466 18.8067 23.3088C20.7753 22.5727 20.8803 22.5211 21.0821 22.1901C21.2748 21.8741 21.2816 21.6379 21.1084 21.273C20.949 20.9371 20.6286 20.7561 20.2138 20.7675C20.0391 20.7723 18.8962 21.1537 17.5621 21.6523Z" fill="white"/>
</svg>
