<svg width="40" height="36" viewBox="0 0 40 36" fill="none" xmlns="http://www.w3.org/2000/svg">
<path fill-rule="evenodd" clip-rule="evenodd" d="M14.5653 0.639774C12.6118 1.07055 11.0028 2.50622 10.233 4.50552C9.60593 6.13378 9.57208 8.0584 10.1415 9.69894C10.4866 10.6933 10.9317 11.3955 11.7112 12.1751C12.5265 12.9906 13.0432 13.3337 13.9136 13.6371C14.6691 13.9005 15.9586 13.9691 16.7337 13.7872C18.9853 13.2588 20.7191 11.364 21.304 8.7925C21.5127 7.87503 21.4781 6.30174 21.2284 5.35777C20.3642 2.09069 17.4247 0.00928462 14.5653 0.639774ZM27.3805 3.72505C25.0643 4.09225 23.0935 6.00272 22.4145 8.53891C22.1812 9.4104 22.1782 10.9427 22.4082 11.7947C23.0722 14.2542 24.9622 15.7921 27.3067 15.7807C29.7555 15.7687 31.9001 14.0428 32.8321 11.3336C33.0885 10.5887 33.0942 10.5436 33.0927 9.28177C33.0914 8.10485 33.0735 7.93892 32.8898 7.39202C32.3035 5.64772 30.9978 4.32762 29.3917 3.85564C28.8712 3.70269 27.9137 3.64044 27.3805 3.72505ZM3.64143 8.38635C0.754848 9.08628 -0.759874 12.4254 0.381935 15.5716C1.03322 17.3661 2.45356 18.7691 4.16534 19.3088C4.93384 19.5511 6.13187 19.5505 6.91586 19.3073C8.05368 18.9546 9.0735 18.0679 9.6437 16.9355C10.0979 16.0338 10.2511 15.2718 10.2076 14.132C10.1758 13.3002 10.1329 13.0421 9.92302 12.4212C9.56082 11.3499 9.14302 10.6847 8.31774 9.86534C7.74567 9.29733 7.47449 9.09371 6.93627 8.82815C5.85264 8.29346 4.67541 8.13558 3.64143 8.38635ZM34.2705 14.0176C33.9695 14.0836 33.3672 14.3101 32.9321 14.521C30.8604 15.5251 29.4607 17.7339 29.4634 19.9945C29.4652 21.4644 29.9011 22.562 30.8619 23.5164C31.8628 24.5105 32.8761 24.8892 34.3487 24.819C35.3196 24.7728 36.001 24.5763 36.88 24.0889C37.5592 23.7123 38.7145 22.5593 39.1413 21.8321C40.1523 20.1095 40.2796 18.0514 39.4751 16.4366C39.0858 15.6552 38.6867 15.1904 38.0051 14.7247C36.9517 14.0049 35.544 13.7384 34.2705 14.0176ZM16.9073 14.9067C15.2007 15.2073 13.7164 15.8833 12.3758 16.9706C11.3309 17.818 10.7867 18.5475 8.25315 22.4968C6.915 24.5826 5.72135 26.5004 5.60053 26.7584C4.86565 28.3284 4.86894 30.3559 5.6089 31.9373C6.40657 33.642 7.89455 34.8593 9.75568 35.33C10.3132 35.4709 10.5706 35.491 11.4341 35.4602C12.3197 35.4287 12.5416 35.3924 13.1187 35.1849C16.1331 34.1007 16.4496 34.0338 18.5533 34.0362C19.8695 34.0377 20.2434 34.0654 20.9143 34.2108C21.678 34.3764 21.9875 34.474 23.8315 35.1312C24.5736 35.3957 24.7464 35.4271 25.63 35.458C27.034 35.507 27.9961 35.2727 29.13 34.6057C29.7592 34.2355 30.7742 33.2027 31.1785 32.5213C31.7305 31.5909 31.9751 30.7586 32.0219 29.6517C32.0675 28.5731 31.9449 27.8142 31.5876 26.9639C31.3885 26.4901 27.9604 21.0397 26.6385 19.0953C26.1625 18.3952 25.215 17.3611 24.5743 16.8427C22.5402 15.1966 19.5491 14.4413 16.9073 14.9067Z" fill="black"/>
</svg>
